<svg width="128" height="122" viewBox="0 0 128 122" fill="none">
    <rect 
        width="128" 
        height="122" 
        fill="black"
    />
    <g clip-path="url(#clip0)">
        <path 
            d="M66.304 83.904V87H10V83.904H16.984V36.672H34.264C43.288 36.672 50.224 38.88 55.072 43.296C59.92 47.664 62.344 53.832 62.344 61.8C62.344 72.504 58.12 79.872 49.672 83.904H66.304ZM53.776 61.8C53.776 50.28 47.176 44.52 33.976 44.52H25.48V79.008H34.912C41.008 79.008 45.664 77.568 48.88 74.688C52.144 71.76 53.776 67.464 53.776 61.8ZM119.312 83.904V87H66.3203V83.904H82.3043C78.5123 81.648 75.5123 78.576 73.3043 74.688C71.1443 70.8 70.0643 66.408 70.0643 61.512C70.0643 54.12 72.6083 47.928 77.6963 42.936C82.8323 37.944 89.2883 35.448 97.0643 35.448C104.888 35.448 111.416 38.328 116.648 44.088L111.248 49.992C108.848 47.688 106.568 46.08 104.408 45.168C102.296 44.256 99.8003 43.8 96.9203 43.8C91.8323 43.8 87.5603 45.456 84.1043 48.768C80.6483 52.032 78.9203 56.232 78.9203 61.368C78.9203 66.456 80.6243 70.728 84.0323 74.184C87.4883 77.592 91.5683 79.296 96.2723 79.296C99.2003 79.296 101.72 78.816 103.832 77.856C105.944 76.848 108.152 75.264 110.456 73.104L115.928 78.72C113.816 81.024 111.8 82.752 109.88 83.904H119.312Z" 
            fill="white"
        />
    </g>
    <defs>
        <clipPath id="clip0">
            <rect 
                x="10" 
                y="6" 
                width="108" 
                height="110" 
                rx="54" 
                fill="white"
            />
        </clipPath>
    </defs>
</svg>
