<svg width="108" height="110" viewBox="0 0 108 110" fill="none">
    <g clip-path="url(#clip0)">
        <path 
            d="M56.304 77.904V81H0V77.904H6.984V30.672H24.264C33.288 30.672 40.224 32.88 45.072 37.296C49.92 41.664 52.344 47.832 52.344 55.8C52.344 66.504 48.12 73.872 39.672 77.904H56.304ZM43.776 55.8C43.776 44.28 37.176 38.52 23.976 38.52H15.48V73.008H24.912C31.008 73.008 35.664 71.568 38.88 68.688C42.144 65.76 43.776 61.464 43.776 55.8ZM109.312 77.904V81H56.3203V77.904H72.3043C68.5123 75.648 65.5123 72.576 63.3043 68.688C61.1443 64.8 60.0643 60.408 60.0643 55.512C60.0643 48.12 62.6083 41.928 67.6963 36.936C72.8323 31.944 79.2883 29.448 87.0643 29.448C94.8883 29.448 101.416 32.328 106.648 38.088L101.248 43.992C98.8483 41.688 96.5683 40.08 94.4083 39.168C92.2963 38.256 89.8003 37.8 86.9203 37.8C81.8323 37.8 77.5603 39.456 74.1043 42.768C70.6483 46.032 68.9203 50.232 68.9203 55.368C68.9203 60.456 70.6243 64.728 74.0323 68.184C77.4883 71.592 81.5683 73.296 86.2723 73.296C89.2003 73.296 91.7203 72.816 93.8323 71.856C95.9443 70.848 98.1523 69.264 100.456 67.104L105.928 72.72C103.816 75.024 101.8 76.752 99.8803 77.904H109.312Z" 
            fill="black"
        />
    </g>
    <defs>
        <clipPath id="clip0">
            <rect 
                width="108" 
                height="110" 
                rx="54" 
                fill="white"
            />
        </clipPath>
    </defs>
</svg>
